<svg width="415" height="56" viewBox="0 0 415 56" fill="none" xmlns="http://www.w3.org/2000/svg">
<path d="M19.7119 16.4829C19.7119 19.0732 18.9434 21.1368 17.4066 22.6736C15.6797 24.5041 13.4089 25.4193 10.5942 25.4193C7.9003 25.4193 5.62087 24.4868 3.75588 22.6218C1.89089 20.7569 0.958397 18.4602 0.958397 15.7317C0.958397 13.0033 1.89089 10.7066 3.75588 8.84165C5.62087 6.97666 7.9003 6.04417 10.5942 6.04417C11.9584 6.04417 13.2449 6.28592 14.4537 6.76944C15.6624 7.25295 16.6554 7.93506 17.4325 8.81575L15.7229 10.5253C15.153 9.83458 14.4105 9.29926 13.4953 8.91936C12.5973 8.52218 11.6303 8.3236 10.5942 8.3236C8.57377 8.3236 6.86419 9.02297 5.46545 10.4217C4.08398 11.8377 3.39324 13.6077 3.39324 15.7317C3.39324 17.8558 4.08398 19.6258 5.46545 21.0418C6.86419 22.4405 8.57377 23.1399 10.5942 23.1399C12.4419 23.1399 13.9788 22.6218 15.2048 21.5857C16.4309 20.5496 17.1389 19.125 17.3289 17.3118H10.5942V15.0842H19.5824C19.6687 15.5677 19.7119 16.0339 19.7119 16.4829ZM21.3411 18.6587C21.3411 16.7074 21.9542 15.0928 23.1802 13.815C24.4235 12.5371 25.9863 11.8982 27.8686 11.8982C29.7508 11.8982 31.305 12.5371 32.5311 13.815C33.7744 15.0928 34.396 16.7074 34.396 18.6587C34.396 20.6273 33.7744 22.2419 32.5311 23.5025C31.305 24.7804 29.7508 25.4193 27.8686 25.4193C25.9863 25.4193 24.4235 24.7804 23.1802 23.5025C21.9542 22.2247 21.3411 20.6101 21.3411 18.6587ZM23.7242 18.6587C23.7242 20.0229 24.1213 21.1281 24.9157 21.9743C25.71 22.8204 26.6943 23.2435 27.8686 23.2435C29.0428 23.2435 30.0271 22.8204 30.8215 21.9743C31.6158 21.1281 32.013 20.0229 32.013 18.6587C32.013 17.3118 31.6158 16.2153 30.8215 15.3691C30.0099 14.5057 29.0256 14.074 27.8686 14.074C26.7116 14.074 25.7273 14.5057 24.9157 15.3691C24.1213 16.2153 23.7242 17.3118 23.7242 18.6587ZM35.8355 18.6587C35.8355 16.7074 36.4485 15.0928 37.6745 13.815C38.9179 12.5371 40.4807 11.8982 42.3629 11.8982C44.2452 11.8982 45.7993 12.5371 47.0254 13.815C48.2687 15.0928 48.8904 16.7074 48.8904 18.6587C48.8904 20.6273 48.2687 22.2419 47.0254 23.5025C45.7993 24.7804 44.2452 25.4193 42.3629 25.4193C40.4807 25.4193 38.9179 24.7804 37.6745 23.5025C36.4485 22.2247 35.8355 20.6101 35.8355 18.6587ZM38.2185 18.6587C38.2185 20.0229 38.6157 21.1281 39.41 21.9743C40.2044 22.8204 41.1887 23.2435 42.3629 23.2435C43.5372 23.2435 44.5215 22.8204 45.3158 21.9743C46.1102 21.1281 46.5073 20.0229 46.5073 18.6587C46.5073 17.3118 46.1102 16.2153 45.3158 15.3691C44.5042 14.5057 43.5199 14.074 42.3629 14.074C41.2059 14.074 40.2216 14.5057 39.41 15.3691C38.6157 16.2153 38.2185 17.3118 38.2185 18.6587ZM56.7536 23.2435C57.9279 23.2435 58.8863 22.8204 59.6288 21.9743C60.4059 21.1281 60.7945 20.0229 60.7945 18.6587C60.7945 17.3291 60.4059 16.2325 59.6288 15.3691C58.869 14.5057 57.9106 14.074 56.7536 14.074C55.6139 14.074 54.6555 14.5057 53.8785 15.3691C53.1014 16.2325 52.7128 17.3291 52.7128 18.6587C52.7128 20.0057 53.1014 21.1022 53.8785 21.9484C54.6555 22.8118 55.6139 23.2435 56.7536 23.2435ZM56.6759 31.0143C55.9679 31.0143 55.3031 30.9193 54.6814 30.7294C54.0598 30.5567 53.4899 30.3063 52.9719 29.9782C52.4711 29.6501 52.0394 29.2615 51.6767 28.8126C51.3141 28.3636 51.0378 27.8628 50.8478 27.3102L53.1014 26.3777C53.3604 27.1203 53.8094 27.716 54.4483 28.165C55.0872 28.614 55.8298 28.8385 56.6759 28.8385C57.9711 28.8385 58.9813 28.4499 59.7065 27.6729C60.4318 26.8958 60.7945 25.8251 60.7945 24.4609V23.2435H60.6908C60.2419 23.917 59.6288 24.4523 58.8518 24.8495C58.0919 25.2294 57.2631 25.4193 56.3651 25.4193C54.7073 25.4193 53.2827 24.7718 52.0912 23.4766C50.9169 22.147 50.3298 20.541 50.3298 18.6587C50.3298 16.7765 50.9169 15.1792 52.0912 13.8668C53.2827 12.5544 54.7073 11.8982 56.3651 11.8982C57.2631 11.8982 58.0919 12.0967 58.8518 12.4939C59.6288 12.8738 60.2419 13.4005 60.6908 14.074H60.7945V12.3126H63.0739V24.4609C63.0739 26.4986 62.4954 28.0959 61.3384 29.2529C60.1642 30.4272 58.61 31.0143 56.6759 31.0143ZM68.3625 6.45861V25.0049H65.9794V6.45861H68.3625ZM76.8383 25.4193C74.9733 25.4193 73.4364 24.7804 72.2276 23.5025C71.0188 22.2247 70.4144 20.6101 70.4144 18.6587C70.4144 16.7247 71.0016 15.1187 72.1758 13.8409C73.3501 12.5457 74.8524 11.8982 76.6829 11.8982C78.5651 11.8982 80.0589 12.5112 81.164 13.7372C82.2865 14.946 82.8477 16.647 82.8477 18.8401L82.8218 19.0991H72.8493C72.8838 20.3424 73.2983 21.344 74.0926 22.1038C74.887 22.8636 75.8367 23.2435 76.9419 23.2435C78.4615 23.2435 79.653 22.4837 80.5165 20.9641L82.6405 22.0002C82.0706 23.0708 81.2763 23.9083 80.2574 24.5127C79.2559 25.1171 78.1162 25.4193 76.8383 25.4193ZM73.0306 17.1305H80.3092C80.2402 16.2498 79.8775 15.5245 79.2213 14.9547C78.5824 14.3675 77.719 14.074 76.6311 14.074C75.7331 14.074 74.956 14.3503 74.2998 14.9029C73.6609 15.4555 73.2378 16.198 73.0306 17.1305ZM91.1329 25.0049V6.45861H96.8056C99.6376 6.45861 101.908 7.3134 103.618 9.02297C105.345 10.7325 106.208 12.9688 106.208 15.7317C106.208 18.512 105.345 20.7569 103.618 22.4664C101.908 24.1587 99.6376 25.0049 96.8056 25.0049H91.1329ZM93.5159 8.73804V22.7255H96.8056C98.9641 22.7255 100.665 22.1124 101.908 20.8864C103.152 19.643 103.773 17.9248 103.773 15.7317C103.773 13.5559 103.152 11.8464 101.908 10.603C100.665 9.3597 98.9641 8.73804 96.8056 8.73804H93.5159ZM113.947 25.4193C112.082 25.4193 110.545 24.7804 109.336 23.5025C108.127 22.2247 107.523 20.6101 107.523 18.6587C107.523 16.7247 108.11 15.1187 109.284 13.8409C110.459 12.5457 111.961 11.8982 113.791 11.8982C115.674 11.8982 117.167 12.5112 118.273 13.7372C119.395 14.946 119.956 16.647 119.956 18.8401L119.93 19.0991H109.958C109.992 20.3424 110.407 21.344 111.201 22.1038C111.995 22.8636 112.945 23.2435 114.05 23.2435C115.57 23.2435 116.762 22.4837 117.625 20.9641L119.749 22.0002C119.179 23.0708 118.385 23.9083 117.366 24.5127C116.364 25.1171 115.225 25.4193 113.947 25.4193ZM110.139 17.1305H117.418C117.349 16.2498 116.986 15.5245 116.33 14.9547C115.691 14.3675 114.828 14.074 113.74 14.074C112.842 14.074 112.065 14.3503 111.408 14.9029C110.769 15.4555 110.346 16.198 110.139 17.1305ZM128.047 25.0049H125.664L120.536 12.3126H123.126L126.856 22.1556H126.908L130.689 12.3126H133.228L128.047 25.0049ZM140.102 25.4193C138.237 25.4193 136.701 24.7804 135.492 23.5025C134.283 22.2247 133.679 20.6101 133.679 18.6587C133.679 16.7247 134.266 15.1187 135.44 13.8409C136.614 12.5457 138.117 11.8982 139.947 11.8982C141.829 11.8982 143.323 12.5112 144.428 13.7372C145.551 14.946 146.112 16.647 146.112 18.8401L146.086 19.0991H136.113C136.148 20.3424 136.562 21.344 137.357 22.1038C138.151 22.8636 139.101 23.2435 140.206 23.2435C141.726 23.2435 142.917 22.4837 143.781 20.9641L145.905 22.0002C145.335 23.0708 144.54 23.9083 143.522 24.5127C142.52 25.1171 141.38 25.4193 140.102 25.4193ZM136.295 17.1305H143.573C143.504 16.2498 143.142 15.5245 142.485 14.9547C141.847 14.3675 140.983 14.074 139.895 14.074C138.997 14.074 138.22 14.3503 137.564 14.9029C136.925 15.4555 136.502 16.198 136.295 17.1305ZM150.674 6.45861V25.0049H148.291V6.45861H150.674ZM152.726 18.6587C152.726 16.7074 153.339 15.0928 154.565 13.815C155.808 12.5371 157.371 11.8982 159.254 11.8982C161.136 11.8982 162.69 12.5371 163.916 13.815C165.159 15.0928 165.781 16.7074 165.781 18.6587C165.781 20.6273 165.159 22.2419 163.916 23.5025C162.69 24.7804 161.136 25.4193 159.254 25.4193C157.371 25.4193 155.808 24.7804 154.565 23.5025C153.339 22.2247 152.726 20.6101 152.726 18.6587ZM155.109 18.6587C155.109 20.0229 155.506 21.1281 156.301 21.9743C157.095 22.8204 158.079 23.2435 159.254 23.2435C160.428 23.2435 161.412 22.8204 162.206 21.9743C163.001 21.1281 163.398 20.0229 163.398 18.6587C163.398 17.3118 163.001 16.2153 162.206 15.3691C161.395 14.5057 160.411 14.074 159.254 14.074C158.097 14.074 157.112 14.5057 156.301 15.3691C155.506 16.2153 155.109 17.3118 155.109 18.6587ZM174.036 23.2435C175.176 23.2435 176.134 22.8118 176.911 21.9484C177.688 21.1022 178.077 20.0057 178.077 18.6587C178.077 17.3291 177.688 16.2325 176.911 15.3691C176.134 14.5057 175.176 14.074 174.036 14.074C172.879 14.074 171.912 14.5057 171.135 15.3691C170.375 16.2325 169.995 17.3291 169.995 18.6587C169.995 20.0057 170.375 21.1109 171.135 21.9743C171.912 22.8204 172.879 23.2435 174.036 23.2435ZM174.424 25.4193C173.492 25.4193 172.637 25.2207 171.86 24.8236C171.1 24.4264 170.513 23.8997 170.099 23.2435H169.995L170.099 25.0049V30.5998H167.716V12.3126H169.995V14.074H170.099C170.513 13.4178 171.1 12.8911 171.86 12.4939C172.637 12.0967 173.492 11.8982 174.424 11.8982C176.099 11.8982 177.515 12.5544 178.672 13.8668C179.864 15.1964 180.46 16.7938 180.46 18.6587C180.46 20.541 179.864 22.1383 178.672 23.4507C177.515 24.7631 176.099 25.4193 174.424 25.4193ZM188.341 25.4193C186.476 25.4193 184.939 24.7804 183.73 23.5025C182.522 22.2247 181.917 20.6101 181.917 18.6587C181.917 16.7247 182.504 15.1187 183.678 13.8409C184.853 12.5457 186.355 11.8982 188.186 11.8982C190.068 11.8982 191.562 12.5112 192.667 13.7372C193.789 14.946 194.35 16.647 194.35 18.8401L194.324 19.0991H184.352C184.386 20.3424 184.801 21.344 185.595 22.1038C186.39 22.8636 187.339 23.2435 188.445 23.2435C189.964 23.2435 191.156 22.4837 192.019 20.9641L194.143 22.0002C193.573 23.0708 192.779 23.9083 191.76 24.5127C190.759 25.1171 189.619 25.4193 188.341 25.4193ZM184.533 17.1305H191.812C191.743 16.2498 191.38 15.5245 190.724 14.9547C190.085 14.3675 189.222 14.074 188.134 14.074C187.236 14.074 186.459 14.3503 185.802 14.9029C185.164 15.4555 184.74 16.198 184.533 17.1305ZM198.913 25.0049H196.53V12.3126H198.809V14.3848H198.913C199.154 13.7113 199.647 13.1415 200.389 12.6752C201.149 12.1917 201.891 11.95 202.617 11.95C203.307 11.95 203.895 12.0536 204.378 12.2608L203.653 14.5661C203.359 14.4452 202.893 14.3848 202.254 14.3848C201.356 14.3848 200.57 14.7474 199.897 15.4727C199.241 16.198 198.913 17.0441 198.913 18.0112V25.0049ZM229.386 16.4829C229.386 19.0732 228.618 21.1368 227.081 22.6736C225.354 24.5041 223.084 25.4193 220.269 25.4193C217.575 25.4193 215.295 24.4868 213.43 22.6218C211.565 20.7569 210.633 18.4602 210.633 15.7317C210.633 13.0033 211.565 10.7066 213.43 8.84165C215.295 6.97666 217.575 6.04417 220.269 6.04417C221.633 6.04417 222.919 6.28592 224.128 6.76944C225.337 7.25295 226.33 7.93506 227.107 8.81575L225.397 10.5253C224.828 9.83458 224.085 9.29926 223.17 8.91936C222.272 8.52218 221.305 8.3236 220.269 8.3236C218.248 8.3236 216.539 9.02297 215.14 10.4217C213.759 11.8377 213.068 13.6077 213.068 15.7317C213.068 17.8558 213.759 19.6258 215.14 21.0418C216.539 22.4405 218.248 23.1399 220.269 23.1399C222.116 23.1399 223.653 22.6218 224.879 21.5857C226.106 20.5496 226.814 19.125 227.003 17.3118H220.269V15.0842H229.257C229.343 15.5677 229.386 16.0339 229.386 16.4829ZM233.745 25.0049H231.362V12.3126H233.641V14.3848H233.745C233.986 13.7113 234.479 13.1415 235.221 12.6752C235.981 12.1917 236.723 11.95 237.449 11.95C238.139 11.95 238.727 12.0536 239.21 12.2608L238.485 14.5661C238.191 14.4452 237.725 14.3848 237.086 14.3848C236.188 14.3848 235.402 14.7474 234.729 15.4727C234.073 16.198 233.745 17.0441 233.745 18.0112V25.0049ZM239.262 18.6587C239.262 16.7074 239.875 15.0928 241.101 13.815C242.344 12.5371 243.907 11.8982 245.79 11.8982C247.672 11.8982 249.226 12.5371 250.452 13.815C251.695 15.0928 252.317 16.7074 252.317 18.6587C252.317 20.6273 251.695 22.2419 250.452 23.5025C249.226 24.7804 247.672 25.4193 245.79 25.4193C243.907 25.4193 242.344 24.7804 241.101 23.5025C239.875 22.2247 239.262 20.6101 239.262 18.6587ZM241.645 18.6587C241.645 20.0229 242.042 21.1281 242.837 21.9743C243.631 22.8204 244.615 23.2435 245.79 23.2435C246.964 23.2435 247.948 22.8204 248.742 21.9743C249.537 21.1281 249.934 20.0229 249.934 18.6587C249.934 17.3118 249.537 16.2153 248.742 15.3691C247.931 14.5057 246.947 14.074 245.79 14.074C244.633 14.074 243.648 14.5057 242.837 15.3691C242.042 16.2153 241.645 17.3118 241.645 18.6587ZM265.493 25.0049H263.214V23.2435H263.11C262.748 23.8652 262.186 24.3832 261.427 24.7977C260.684 25.2121 259.907 25.4193 259.095 25.4193C257.541 25.4193 256.341 24.979 255.495 24.0983C254.666 23.2003 254.252 21.9311 254.252 20.2906V12.3126H256.635V20.1352C256.686 22.2074 257.731 23.2435 259.769 23.2435C260.719 23.2435 261.513 22.8636 262.152 22.1038C262.791 21.3267 263.11 20.4029 263.11 19.3322V12.3126H265.493V25.0049ZM274.611 23.2435C275.751 23.2435 276.709 22.8118 277.486 21.9484C278.263 21.1022 278.652 20.0057 278.652 18.6587C278.652 17.3291 278.263 16.2325 277.486 15.3691C276.709 14.5057 275.751 14.074 274.611 14.074C273.454 14.074 272.487 14.5057 271.71 15.3691C270.95 16.2325 270.57 17.3291 270.57 18.6587C270.57 20.0057 270.95 21.1109 271.71 21.9743C272.487 22.8204 273.454 23.2435 274.611 23.2435ZM274.999 25.4193C274.067 25.4193 273.212 25.2207 272.435 24.8236C271.675 24.4264 271.088 23.8997 270.674 23.2435H270.57L270.674 25.0049V30.5998H268.291V12.3126H270.57V14.074H270.674C271.088 13.4178 271.675 12.8911 272.435 12.4939C273.212 12.0967 274.067 11.8982 274.999 11.8982C276.674 11.8982 278.09 12.5544 279.247 13.8668C280.439 15.1964 281.035 16.7938 281.035 18.6587C281.035 20.541 280.439 22.1383 279.247 23.4507C278.09 24.7631 276.674 25.4193 274.999 25.4193ZM288.184 18.6587C288.184 16.7074 288.797 15.0928 290.023 13.815C291.266 12.5371 292.829 11.8982 294.711 11.8982C296.593 11.8982 298.147 12.5371 299.374 13.815C300.617 15.0928 301.239 16.7074 301.239 18.6587C301.239 20.6273 300.617 22.2419 299.374 23.5025C298.147 24.7804 296.593 25.4193 294.711 25.4193C292.829 25.4193 291.266 24.7804 290.023 23.5025C288.797 22.2247 288.184 20.6101 288.184 18.6587ZM290.567 18.6587C290.567 20.0229 290.964 21.1281 291.758 21.9743C292.553 22.8204 293.537 23.2435 294.711 23.2435C295.885 23.2435 296.87 22.8204 297.664 21.9743C298.458 21.1281 298.855 20.0229 298.855 18.6587C298.855 17.3118 298.458 16.2153 297.664 15.3691C296.852 14.5057 295.868 14.074 294.711 14.074C293.554 14.074 292.57 14.5057 291.758 15.3691C290.964 16.2153 290.567 17.3118 290.567 18.6587ZM303.15 12.3126H305.43V14.074H305.533C305.896 13.4523 306.449 12.9343 307.191 12.5198C307.951 12.1054 308.737 11.8982 309.548 11.8982C311.102 11.8982 312.294 12.3471 313.123 13.2451C313.969 14.1258 314.392 15.3864 314.392 17.0269V25.0049H312.009V17.1823C311.957 15.1101 310.912 14.074 308.875 14.074C307.925 14.074 307.131 14.4625 306.492 15.2396C305.853 15.9994 305.533 16.9146 305.533 17.9853V25.0049H303.15V12.3126ZM331.518 25.4193C328.773 25.4193 326.476 24.4955 324.628 22.6477C322.798 20.8 321.883 18.4947 321.883 15.7317C321.883 12.9688 322.798 10.6721 324.628 8.84165C326.459 6.97666 328.756 6.04417 331.518 6.04417C334.316 6.04417 336.587 7.05437 338.331 9.07477L336.621 10.7325C335.292 9.12658 333.591 8.3236 331.518 8.3236C329.464 8.3236 327.745 9.01433 326.364 10.3958C325 11.76 324.318 13.5387 324.318 15.7317C324.318 17.9248 325 19.7035 326.364 21.0677C327.745 22.4492 329.464 23.1399 331.518 23.1399C333.677 23.1399 335.551 22.2333 337.139 20.4201L338.875 22.1038C337.994 23.1572 336.915 23.9774 335.637 24.5645C334.359 25.1344 332.986 25.4193 331.518 25.4193ZM342.475 21.1195C342.475 21.7412 342.734 22.2592 343.252 22.6736C343.787 23.0881 344.409 23.2953 345.117 23.2953C346.119 23.2953 347.008 22.924 347.785 22.1815C348.579 21.439 348.976 20.5669 348.976 19.5653C348.234 18.9782 347.198 18.6846 345.868 18.6846C344.901 18.6846 344.089 18.9178 343.433 19.384C342.794 19.8503 342.475 20.4288 342.475 21.1195ZM345.557 11.8982C347.319 11.8982 348.709 12.373 349.728 13.3228C350.746 14.2553 351.256 15.5418 351.256 17.1823V25.0049H348.976V23.2435H348.873C347.889 24.6941 346.576 25.4193 344.936 25.4193C343.537 25.4193 342.363 25.0049 341.413 24.176C340.48 23.3471 340.014 22.311 340.014 21.0677C340.014 19.7553 340.506 18.7105 341.491 17.9335C342.492 17.1564 343.822 16.7679 345.48 16.7679C346.896 16.7679 348.061 17.0269 348.976 17.5449V17.001C348.976 16.1721 348.648 15.4727 347.992 14.9029C347.336 14.3157 346.568 14.0222 345.687 14.0222C344.357 14.0222 343.304 14.5834 342.527 15.7058L340.429 14.3848C341.586 12.727 343.295 11.8982 345.557 11.8982ZM356.327 25.0049H353.944V12.3126H356.223V14.074H356.327C356.689 13.4523 357.242 12.9343 357.984 12.5198C358.744 12.1054 359.495 11.8982 360.238 11.8982C361.171 11.8982 361.991 12.114 362.699 12.5457C363.407 12.9774 363.925 13.5732 364.253 14.333C365.306 12.7098 366.765 11.8982 368.63 11.8982C370.098 11.8982 371.229 12.3471 372.024 13.2451C372.818 14.1431 373.215 15.4209 373.215 17.0787V25.0049H370.832V17.4413C370.832 16.2498 370.616 15.395 370.185 14.877C369.753 14.3416 369.028 14.074 368.009 14.074C367.094 14.074 366.325 14.4625 365.703 15.2396C365.082 16.0167 364.771 16.9319 364.771 17.9853V25.0049H362.388V17.4413C362.388 16.2498 362.172 15.395 361.74 14.877C361.309 14.3416 360.583 14.074 359.565 14.074C358.649 14.074 357.881 14.4625 357.259 15.2396C356.638 16.0167 356.327 16.9319 356.327 17.9853V25.0049ZM382.218 23.2435C383.358 23.2435 384.316 22.8118 385.093 21.9484C385.87 21.1022 386.259 20.0057 386.259 18.6587C386.259 17.3291 385.87 16.2325 385.093 15.3691C384.316 14.5057 383.358 14.074 382.218 14.074C381.061 14.074 380.094 14.5057 379.317 15.3691C378.557 16.2325 378.177 17.3291 378.177 18.6587C378.177 20.0057 378.557 21.1109 379.317 21.9743C380.094 22.8204 381.061 23.2435 382.218 23.2435ZM382.607 25.4193C381.674 25.4193 380.819 25.2207 380.042 24.8236C379.282 24.4264 378.695 23.8997 378.281 23.2435H378.177L378.281 25.0049V30.5998H375.898V12.3126H378.177V14.074H378.281C378.695 13.4178 379.282 12.8911 380.042 12.4939C380.819 12.0967 381.674 11.8982 382.607 11.8982C384.282 11.8982 385.698 12.5544 386.855 13.8668C388.046 15.1964 388.642 16.7938 388.642 18.6587C388.642 20.541 388.046 22.1383 386.855 23.4507C385.698 24.7631 384.282 25.4193 382.607 25.4193ZM401.836 25.0049H399.557V23.2435H399.453C399.091 23.8652 398.529 24.3832 397.769 24.7977C397.027 25.2121 396.25 25.4193 395.438 25.4193C393.884 25.4193 392.684 24.979 391.838 24.0983C391.009 23.2003 390.594 21.9311 390.594 20.2906V12.3126H392.978V20.1352C393.029 22.2074 394.074 23.2435 396.112 23.2435C397.061 23.2435 397.856 22.8636 398.495 22.1038C399.134 21.3267 399.453 20.4029 399.453 19.3322V12.3126H401.836V25.0049ZM414.324 21.4821C414.324 22.5873 413.841 23.5198 412.874 24.2796C411.907 25.0394 410.689 25.4193 409.221 25.4193C407.943 25.4193 406.821 25.0912 405.854 24.435C404.887 23.7616 404.196 22.8809 403.782 21.793L405.906 20.8864C406.217 21.6462 406.666 22.2419 407.253 22.6736C407.857 23.0881 408.513 23.2953 409.221 23.2953C409.981 23.2953 410.611 23.1313 411.112 22.8032C411.63 22.4751 411.889 22.0865 411.889 21.6375C411.889 20.8259 411.268 20.2302 410.024 19.8503L407.848 19.3063C405.379 18.6846 404.144 17.4931 404.144 15.7317C404.144 14.5748 404.611 13.6509 405.543 12.9602C406.493 12.2522 407.702 11.8982 409.169 11.8982C410.292 11.8982 411.302 12.1658 412.2 12.7011C413.115 13.2365 413.754 13.9531 414.117 14.8511L411.993 15.7317C411.751 15.1964 411.354 14.782 410.801 14.4884C410.266 14.1776 409.662 14.0222 408.988 14.0222C408.366 14.0222 407.805 14.1776 407.304 14.4884C406.821 14.7993 406.579 15.1792 406.579 15.6281C406.579 16.3534 407.261 16.8715 408.626 17.1823L410.542 17.6744C413.063 18.2961 414.324 19.5653 414.324 21.4821Z" fill="#5F6368"/>
<path d="M126.899 51.0049V37.0952H131.153C133.277 37.0952 134.98 37.7363 136.263 39.0184C137.558 40.3006 138.205 41.9778 138.205 44.05C138.205 46.1352 137.558 47.8189 136.263 49.101C134.98 50.3703 133.277 51.0049 131.153 51.0049H126.899ZM128.686 38.8047V49.2953H131.153C132.772 49.2953 134.048 48.8355 134.98 47.916C135.913 46.9835 136.379 45.6948 136.379 44.05C136.379 42.4182 135.913 41.136 134.98 40.2035C134.048 39.271 132.772 38.8047 131.153 38.8047H128.686ZM139.191 46.2453C139.191 44.7818 139.651 43.5708 140.571 42.6124C141.503 41.654 142.675 41.1748 144.087 41.1748C145.499 41.1748 146.664 41.654 147.584 42.6124C148.516 43.5708 148.982 44.7818 148.982 46.2453C148.982 47.7217 148.516 48.9327 147.584 49.8781C146.664 50.8365 145.499 51.3157 144.087 51.3157C142.675 51.3157 141.503 50.8365 140.571 49.8781C139.651 48.9197 139.191 47.7088 139.191 46.2453ZM140.979 46.2453C140.979 47.2684 141.276 48.0973 141.872 48.7319C142.468 49.3665 143.206 49.6838 144.087 49.6838C144.968 49.6838 145.706 49.3665 146.302 48.7319C146.897 48.0973 147.195 47.2684 147.195 46.2453C147.195 45.2351 146.897 44.4127 146.302 43.7781C145.693 43.1305 144.955 42.8067 144.087 42.8067C143.219 42.8067 142.481 43.1305 141.872 43.7781C141.276 44.4127 140.979 45.2351 140.979 46.2453ZM150.416 41.4857H152.126V42.8067H152.204C152.476 42.3405 152.89 41.9519 153.447 41.6411C154.017 41.3303 154.606 41.1748 155.215 41.1748C156.38 41.1748 157.274 41.5116 157.896 42.185C158.53 42.8456 158.848 43.791 158.848 45.0214V51.0049H157.06V45.1379C157.021 43.5838 156.238 42.8067 154.71 42.8067C153.997 42.8067 153.402 43.0981 152.922 43.6809C152.443 44.2508 152.204 44.9372 152.204 45.7402V51.0049H150.416V41.4857ZM165.125 49.6838C166.005 49.6838 166.724 49.3665 167.281 48.7319C167.864 48.0973 168.155 47.2684 168.155 46.2453C168.155 45.248 167.864 44.4256 167.281 43.7781C166.711 43.1305 165.992 42.8067 165.125 42.8067C164.27 42.8067 163.551 43.1305 162.968 43.7781C162.385 44.4256 162.094 45.248 162.094 46.2453C162.094 47.2555 162.385 48.0779 162.968 48.7125C163.551 49.3601 164.27 49.6838 165.125 49.6838ZM165.066 55.5119C164.535 55.5119 164.037 55.4407 163.57 55.2982C163.104 55.1687 162.677 54.9809 162.288 54.7349C161.913 54.4888 161.589 54.1974 161.317 53.8606C161.045 53.5239 160.838 53.1483 160.695 52.7339L162.385 52.0345C162.58 52.5914 162.916 53.0382 163.396 53.375C163.875 53.7117 164.432 53.8801 165.066 53.8801C166.038 53.8801 166.795 53.5887 167.339 53.0059C167.883 52.4231 168.155 51.6201 168.155 50.5969V49.6838H168.078C167.741 50.189 167.281 50.5904 166.698 50.8883C166.128 51.1732 165.507 51.3157 164.833 51.3157C163.59 51.3157 162.521 50.83 161.628 49.8587C160.747 48.8614 160.307 47.657 160.307 46.2453C160.307 44.8336 160.747 43.6356 161.628 42.6513C162.521 41.667 163.59 41.1748 164.833 41.1748C165.507 41.1748 166.128 41.3238 166.698 41.6217C167.281 41.9066 167.741 42.3016 168.078 42.8067H168.155V41.4857H169.865V50.5969C169.865 52.1252 169.431 53.3232 168.563 54.1909C167.683 55.0716 166.517 55.5119 165.066 55.5119ZM176.223 49.6838C177.104 49.6838 177.823 49.3665 178.379 48.7319C178.962 48.0973 179.254 47.2684 179.254 46.2453C179.254 45.248 178.962 44.4256 178.379 43.7781C177.81 43.1305 177.091 42.8067 176.223 42.8067C175.368 42.8067 174.649 43.1305 174.067 43.7781C173.484 44.4256 173.192 45.248 173.192 46.2453C173.192 47.2555 173.484 48.0779 174.067 48.7125C174.649 49.3601 175.368 49.6838 176.223 49.6838ZM176.165 55.5119C175.634 55.5119 175.135 55.4407 174.669 55.2982C174.203 55.1687 173.775 54.9809 173.387 54.7349C173.011 54.4888 172.687 54.1974 172.415 53.8606C172.143 53.5239 171.936 53.1483 171.794 52.7339L173.484 52.0345C173.678 52.5914 174.015 53.0382 174.494 53.375C174.973 53.7117 175.53 53.8801 176.165 53.8801C177.136 53.8801 177.894 53.5887 178.438 53.0059C178.982 52.4231 179.254 51.6201 179.254 50.5969V49.6838H179.176C178.839 50.189 178.379 50.5904 177.797 50.8883C177.227 51.1732 176.605 51.3157 175.932 51.3157C174.688 51.3157 173.62 50.83 172.726 49.8587C171.846 48.8614 171.405 47.657 171.405 46.2453C171.405 44.8336 171.846 43.6356 172.726 42.6513C173.62 41.667 174.688 41.1748 175.932 41.1748C176.605 41.1748 177.227 41.3238 177.797 41.6217C178.379 41.9066 178.839 42.3016 179.176 42.8067H179.254V41.4857H180.963V50.5969C180.963 52.1252 180.529 53.3232 179.662 54.1909C178.781 55.0716 177.615 55.5119 176.165 55.5119ZM191.401 51.0049H189.692V49.6838H189.614C189.342 50.1501 188.921 50.5386 188.351 50.8495C187.794 51.1603 187.211 51.3157 186.603 51.3157C185.437 51.3157 184.537 50.9855 183.902 50.3249C183.281 49.6515 182.97 48.6995 182.97 47.4692V41.4857H184.757V47.3526C184.796 48.9068 185.58 49.6838 187.108 49.6838C187.82 49.6838 188.416 49.3989 188.895 48.8291C189.374 48.2463 189.614 47.5534 189.614 46.7504V41.4857H191.401V51.0049ZM201.95 51.0049H199.793L196.821 46.5173L195.364 47.9548V51.0049H193.577V37.0952H195.364V45.6625L199.483 41.4857H201.775V41.5634L198.064 45.2545L201.95 50.9272V51.0049ZM212.005 51.3157C210.464 51.3157 209.221 50.8106 208.275 49.8004C207.33 48.8032 206.857 47.4821 206.857 45.8373V37.0952H208.644V45.915C208.644 47.0547 208.942 47.9548 209.538 48.6154C210.134 49.2759 210.956 49.6061 212.005 49.6061C213.054 49.6061 213.877 49.2759 214.472 48.6154C215.068 47.9548 215.366 47.0547 215.366 45.915V37.0952H217.153V45.8373C217.153 47.521 216.687 48.855 215.754 49.8393C214.822 50.8236 213.572 51.3157 212.005 51.3157ZM219.321 41.4857H221.031V42.8067H221.109C221.381 42.3405 221.795 41.9519 222.352 41.6411C222.922 41.3303 223.511 41.1748 224.12 41.1748C225.285 41.1748 226.179 41.5116 226.801 42.185C227.435 42.8456 227.753 43.791 227.753 45.0214V51.0049H225.965V45.1379C225.926 43.5838 225.143 42.8067 223.615 42.8067C222.902 42.8067 222.307 43.0981 221.827 43.6809C221.348 44.2508 221.109 44.9372 221.109 45.7402V51.0049H219.321V41.4857ZM232.162 38.2025C232.162 38.5522 232.039 38.8501 231.793 39.0962C231.547 39.3422 231.249 39.4653 230.9 39.4653C230.55 39.4653 230.252 39.3422 230.006 39.0962C229.76 38.8501 229.637 38.5522 229.637 38.2025C229.637 37.8528 229.76 37.5549 230.006 37.3089C230.252 37.0628 230.55 36.9398 230.9 36.9398C231.249 36.9398 231.547 37.0628 231.793 37.3089C232.039 37.5549 232.162 37.8528 232.162 38.2025ZM231.793 41.4857V51.0049H230.006V41.4857H231.793ZM238.743 51.0049H236.956L233.109 41.4857H235.052L237.849 48.8679H237.888L240.724 41.4857H242.628L238.743 51.0049ZM247.784 51.3157C246.385 51.3157 245.233 50.8365 244.326 49.8781C243.419 48.9197 242.966 47.7088 242.966 46.2453C242.966 44.7947 243.407 43.5903 244.287 42.6319C245.168 41.6605 246.295 41.1748 247.668 41.1748C249.079 41.1748 250.2 41.6346 251.028 42.5542C251.87 43.4607 252.291 44.7364 252.291 46.3813L252.272 46.5755H244.792C244.818 47.508 245.129 48.2592 245.725 48.8291C246.321 49.3989 247.033 49.6838 247.862 49.6838C249.002 49.6838 249.895 49.114 250.543 47.9743L252.136 48.7514C251.708 49.5543 251.113 50.1825 250.348 50.6358C249.597 51.0891 248.742 51.3157 247.784 51.3157ZM244.928 45.0991H250.387C250.335 44.4386 250.064 43.8946 249.571 43.4672C249.092 43.0269 248.445 42.8067 247.629 42.8067C246.955 42.8067 246.372 43.0139 245.88 43.4284C245.401 43.8428 245.084 44.3997 244.928 45.0991ZM255.713 51.0049H253.926V41.4857H255.635V43.0398H255.713C255.894 42.5347 256.263 42.1073 256.82 41.7576C257.39 41.395 257.947 41.2137 258.491 41.2137C259.009 41.2137 259.449 41.2914 259.812 41.4468L259.268 43.1758C259.048 43.0852 258.698 43.0398 258.219 43.0398C257.545 43.0398 256.956 43.3118 256.451 43.8558C255.959 44.3997 255.713 45.0343 255.713 45.7596V51.0049ZM267.889 48.3628C267.889 49.1917 267.526 49.8911 266.801 50.4609C266.076 51.0308 265.162 51.3157 264.062 51.3157C263.103 51.3157 262.261 51.0696 261.536 50.5775C260.811 50.0724 260.293 49.4119 259.982 48.5959L261.575 47.916C261.808 48.4859 262.145 48.9327 262.585 49.2565C263.038 49.5673 263.531 49.7227 264.062 49.7227C264.631 49.7227 265.104 49.5997 265.48 49.3536C265.868 49.1075 266.063 48.8161 266.063 48.4794C266.063 47.8707 265.596 47.4238 264.664 47.1389L263.032 46.731C261.18 46.2647 260.254 45.3711 260.254 44.05C260.254 43.1823 260.604 42.4894 261.303 41.9713C262.015 41.4403 262.922 41.1748 264.023 41.1748C264.865 41.1748 265.622 41.3756 266.296 41.7771C266.982 42.1786 267.461 42.716 267.733 43.3895L266.14 44.05C265.959 43.6485 265.661 43.3377 265.247 43.1175C264.845 42.8844 264.392 42.7678 263.887 42.7678C263.421 42.7678 263 42.8844 262.624 43.1175C262.261 43.3507 262.08 43.6356 262.08 43.9723C262.08 44.5163 262.592 44.9048 263.615 45.1379L265.052 45.5071C266.943 45.9733 267.889 46.9252 267.889 48.3628ZM271.661 38.2025C271.661 38.5522 271.538 38.8501 271.292 39.0962C271.046 39.3422 270.748 39.4653 270.399 39.4653C270.049 39.4653 269.751 39.3422 269.505 39.0962C269.259 38.8501 269.136 38.5522 269.136 38.2025C269.136 37.8528 269.259 37.5549 269.505 37.3089C269.751 37.0628 270.049 36.9398 270.399 36.9398C270.748 36.9398 271.046 37.0628 271.292 37.3089C271.538 37.5549 271.661 37.8528 271.661 38.2025ZM271.292 41.4857V51.0049H269.505V41.4857H271.292ZM277.292 51.1603C276.515 51.1603 275.867 50.9207 275.349 50.4415C274.844 49.9623 274.585 49.2953 274.572 48.4405V43.1175H272.902V41.4857H274.572V38.5716H276.36V41.4857H278.691V43.1175H276.36V47.8577C276.36 48.4923 276.483 48.9262 276.729 49.1593C276.975 49.3795 277.253 49.4896 277.564 49.4896C277.707 49.4896 277.843 49.4766 277.972 49.4507C278.115 49.4119 278.244 49.3665 278.361 49.3147L278.924 50.9077C278.458 51.0761 277.914 51.1603 277.292 51.1603ZM288.995 41.4857L283.031 55.2011H281.185L283.4 50.4026L279.476 41.4857H281.418L284.255 48.324H284.294L287.052 41.4857H288.995Z" fill="#5F6368"/>
</svg>
