<svg width="24" height="24" viewBox="0 0 24 24" fill="none" xmlns="http://www.w3.org/2000/svg">
<path d="M10.8699 12L15.7668 16.8969C15.997 17.1271 16.1121 17.42 16.1121 17.7758C16.1121 18.1315 15.997 18.4245 15.7668 18.6547C15.5366 18.8849 15.2436 19 14.8879 19C14.5321 19 14.2391 18.8849 14.009 18.6547L8.23317 12.8789C8.10761 12.7534 8.01867 12.6173 7.96635 12.4709C7.91404 12.3244 7.88788 12.1674 7.88788 12C7.88788 11.8326 7.91404 11.6756 7.96635 11.5291C8.01867 11.3827 8.10761 11.2466 8.23317 11.1211L14.009 5.34529C14.2391 5.1151 14.5321 5 14.8879 5C15.2436 5 15.5366 5.1151 15.7668 5.34529C15.997 5.57549 16.1121 5.86846 16.1121 6.22422C16.1121 6.57997 15.997 6.87294 15.7668 7.10314L10.8699 12Z" fill="#333C55"/>
</svg>
