<svg width="17" height="16" viewBox="0 0 17 16" fill="none" xmlns="http://www.w3.org/2000/svg">
<path d="M5.64683 10.9707L6.82083 10.632L13.8895 3.47867C13.9453 3.42153 13.9763 3.34475 13.9759 3.26492C13.9755 3.18509 13.9438 3.10861 13.8875 3.052L13.4642 2.624C13.4368 2.59589 13.4041 2.57351 13.368 2.55817C13.3319 2.54283 13.2931 2.53483 13.2539 2.53465C13.2147 2.53446 13.1758 2.54209 13.1396 2.55709C13.1033 2.57208 13.0705 2.59415 13.0428 2.622L5.99283 9.75667L5.64683 10.9707ZM14.3022 1.776L14.7255 2.20467C15.3095 2.796 15.3148 3.75 14.7362 4.33533L7.45216 11.7073L4.94283 12.43C4.86697 12.4513 4.78765 12.4575 4.70941 12.4482C4.63116 12.4388 4.55552 12.4142 4.4868 12.3756C4.41809 12.337 4.35764 12.2853 4.30891 12.2234C4.26019 12.1615 4.22414 12.0905 4.20283 12.0147C4.17013 11.9047 4.16967 11.7876 4.2015 11.6773L4.9315 9.11733L12.1962 1.76467C12.3343 1.62557 12.4988 1.51537 12.6799 1.4405C12.8611 1.36563 13.0554 1.32758 13.2514 1.32857C13.4474 1.32956 13.6413 1.36958 13.8217 1.44628C14.0021 1.52299 14.1654 1.63551 14.3022 1.776ZM6.62283 2.54467C6.9535 2.54467 7.2215 2.816 7.2215 3.15067C7.22202 3.22978 7.20695 3.30822 7.17714 3.3815C7.14733 3.45478 7.10337 3.52147 7.04777 3.57775C6.99217 3.63404 6.92602 3.67881 6.85311 3.70951C6.78019 3.7402 6.70194 3.75623 6.62283 3.75667H4.22816C3.56683 3.75667 3.03083 4.29933 3.03083 4.968V12.2387C3.03083 12.908 3.56683 13.4507 4.22816 13.4507H11.4122C12.0735 13.4507 12.6102 12.908 12.6102 12.2387V9.81533C12.6102 9.48067 12.8782 9.20933 13.2088 9.20933C13.5395 9.20933 13.8075 9.48067 13.8075 9.816V12.2387C13.8075 13.5773 12.7348 14.6627 11.4122 14.6627H4.22816C2.9055 14.6627 1.8335 13.5773 1.8335 12.2387V4.968C1.8335 3.63 2.9055 2.54467 4.22816 2.54467H6.62283Z" fill="#0F162A"/>
</svg>
