<svg width="16" height="16" viewBox="0 0 16 16" fill="none" xmlns="http://www.w3.org/2000/svg">
<path d="M5.14683 10.9707L6.32083 10.632L13.3895 3.47867C13.4453 3.42153 13.4763 3.34475 13.4759 3.26492C13.4755 3.18509 13.4438 3.10861 13.3875 3.052L12.9642 2.624C12.9368 2.59589 12.9041 2.57351 12.868 2.55817C12.8319 2.54283 12.7931 2.53483 12.7539 2.53465C12.7147 2.53446 12.6758 2.54209 12.6396 2.55709C12.6033 2.57208 12.5705 2.59415 12.5428 2.622L5.49283 9.75667L5.14683 10.9707ZM13.8022 1.776L14.2255 2.20467C14.8095 2.796 14.8148 3.75 14.2362 4.33533L6.95216 11.7073L4.44283 12.43C4.36697 12.4513 4.28765 12.4575 4.20941 12.4482C4.13116 12.4388 4.05552 12.4142 3.9868 12.3756C3.91809 12.337 3.85764 12.2853 3.80891 12.2234C3.76019 12.1615 3.72414 12.0905 3.70283 12.0147C3.67013 11.9047 3.66967 11.7876 3.7015 11.6773L4.4315 9.11733L11.6962 1.76467C11.8343 1.62557 11.9988 1.51537 12.1799 1.4405C12.3611 1.36563 12.5554 1.32758 12.7514 1.32857C12.9474 1.32956 13.1413 1.36958 13.3217 1.44628C13.5021 1.52299 13.6654 1.63551 13.8022 1.776ZM6.12283 2.54467C6.4535 2.54467 6.7215 2.816 6.7215 3.15067C6.72202 3.22978 6.70695 3.30822 6.67714 3.3815C6.64733 3.45478 6.60337 3.52147 6.54777 3.57775C6.49217 3.63404 6.42602 3.67881 6.35311 3.70951C6.28019 3.7402 6.20194 3.75623 6.12283 3.75667H3.72816C3.06683 3.75667 2.53083 4.29933 2.53083 4.968V12.2387C2.53083 12.908 3.06683 13.4507 3.72816 13.4507H10.9122C11.5735 13.4507 12.1102 12.908 12.1102 12.2387V9.81533C12.1102 9.48067 12.3782 9.20933 12.7088 9.20933C13.0395 9.20933 13.3075 9.48067 13.3075 9.816V12.2387C13.3075 13.5773 12.2348 14.6627 10.9122 14.6627H3.72816C2.4055 14.6627 1.3335 13.5773 1.3335 12.2387V4.968C1.3335 3.63 2.4055 2.54467 3.72816 2.54467H6.12283Z" fill="#4338CA"/>
</svg>
