<svg width="25" height="24" viewBox="0 0 25 24" fill="none" xmlns="http://www.w3.org/2000/svg">
<path d="M23.25 11V9C17.25 7 12.25 2 12.25 2C12.25 2 7.25 7 1.25 9V11C1.25 12.49 2.18 13.75 3.49 14.26C3.45 16.76 3.17 19.69 2.25 22H22.25C21.33 19.69 21.05 16.76 21.01 14.26C21.6686 14.0059 22.2349 13.5586 22.6347 12.9768C23.0344 12.395 23.2489 11.7059 23.25 11ZM12.25 4.71C13.58 5.85 15.74 7.55 18.36 9H6.14C8.76 7.55 10.92 5.85 12.25 4.71ZM13.25 11H16.25C16.25 11.83 15.58 12.5 14.75 12.5C13.92 12.5 13.25 11.83 13.25 11ZM9.75 12.5C8.92 12.5 8.25 11.83 8.25 11H11.25C11.25 11.83 10.58 12.5 9.75 12.5ZM6.25 11C6.25 11.83 5.58 12.5 4.75 12.5C3.92 12.5 3.25 11.83 3.25 11H6.25ZM4.91 20C5.3 18.14 5.45 16.18 5.48 14.42C6.16 14.27 6.77 13.93 7.24 13.44C7.49 13.69 7.78 13.89 8.09 14.06C7.99 15.93 7.83 18.06 7.57 19.99H4.91V20ZM9.6 20C9.84 18.17 9.99 16.22 10.08 14.47C10.92 14.39 11.69 14.02 12.25 13.45C12.81 14.02 13.57 14.39 14.42 14.47C14.52 16.22 14.66 18.17 14.9 20H9.6ZM16.92 20C16.65 18.06 16.49 15.93 16.4 14.07C16.71 13.9 17.01 13.7 17.25 13.45C17.72 13.93 18.33 14.28 19.01 14.43C19.04 16.19 19.19 18.15 19.58 20.01H16.92V20ZM19.75 12.5C18.92 12.5 18.25 11.83 18.25 11H21.25C21.25 11.83 20.58 12.5 19.75 12.5Z" fill="#312E81"/>
</svg>
