<svg width="151" height="151" viewBox="0 0 151 151" fill="none" xmlns="http://www.w3.org/2000/svg">
<g clip-path="url(#clip0_1108_2129)">
<path d="M124.171 35.3177C124.171 30.3388 120.136 26.3184 115.175 26.3184C110.215 26.3184 106.176 30.3388 106.176 35.3177C106.176 40.2784 110.215 44.2986 115.175 44.2986C120.136 44.2986 124.171 40.2784 124.171 35.3177Z" fill="url(#paint0_linear_1108_2129)"/>
<path d="M136.158 105.565C135.825 112.869 134.603 116.837 133.589 119.473C132.226 122.968 130.601 125.467 127.966 128.087C125.359 130.708 122.86 132.33 119.366 133.677C116.73 134.706 112.747 135.932 105.443 136.28C97.547 136.628 95.2074 136.702 75.1838 136.702C55.1788 136.702 52.8203 136.628 44.9243 136.28C37.6206 135.932 33.6557 134.706 31.0198 133.677C27.5068 132.33 25.0266 130.708 22.4056 128.087C19.7661 125.467 18.141 122.968 16.7972 119.473C15.7827 116.837 14.5428 112.869 14.2279 105.565C13.8431 97.6688 13.7726 95.2922 13.7726 75.3093C13.7726 55.2857 13.8431 52.9275 14.2279 45.0312C14.5428 37.7275 15.7827 33.7629 16.7972 31.1048C18.141 27.6139 19.7661 25.1298 22.4056 22.5089C25.0266 19.8918 27.5068 18.2665 31.0198 16.9044C33.6557 15.8715 37.6206 14.6646 44.9243 14.3167C52.8203 13.9686 55.1788 13.8797 75.1838 13.8797C95.2074 13.8797 97.547 13.9686 105.443 14.3167C112.747 14.6646 116.73 15.8715 119.366 16.9044C122.86 18.2665 125.359 19.8918 127.966 22.5089C130.601 25.1298 132.226 27.6139 133.589 31.1048C134.603 33.7629 135.825 37.7275 136.158 45.0312C136.524 52.9275 136.613 55.2857 136.613 75.3093C136.613 95.2922 136.524 97.6688 136.158 105.565ZM149.644 44.4169C149.278 36.4354 148.019 30.9826 146.149 26.2332C144.247 21.3058 141.696 17.1301 137.52 12.9543C133.363 8.79718 129.187 6.24648 124.26 4.32156C119.492 2.47052 114.057 1.19696 106.072 0.849078C98.0872 0.463986 95.5369 0.393738 75.1838 0.393738C54.849 0.393738 52.2802 0.463986 44.295 0.849078C36.3285 1.19696 30.8976 2.47052 26.1075 4.32156C21.1987 6.24648 17.023 8.79718 12.8658 12.9543C8.69005 17.1301 6.13935 21.3058 4.21805 26.2332C2.367 30.9826 1.10844 36.4354 0.723354 44.4169C0.375467 52.402 0.286621 54.9562 0.286621 75.3093C0.286621 95.6441 0.375467 98.1944 0.723354 106.18C1.10844 114.146 2.367 119.595 4.21805 124.367C6.13935 129.276 8.69005 133.47 12.8658 137.627C17.023 141.785 21.1987 144.354 26.1075 146.275C30.8976 148.126 36.3285 149.385 44.295 149.751C52.2802 150.118 54.849 150.206 75.1838 150.206C95.5369 150.206 98.0872 150.118 106.072 149.751C114.057 149.385 119.492 148.126 124.26 146.275C129.187 144.354 133.363 141.785 137.52 137.627C141.696 133.47 144.247 129.276 146.149 124.367C148.019 119.595 149.278 114.146 149.644 106.18C150.01 98.1944 150.099 95.6441 150.099 75.3093C150.099 54.9562 150.01 52.402 149.644 44.4169Z" fill="url(#paint1_linear_1108_2129)"/>
<path d="M75.1836 100.257C61.4013 100.257 50.2179 89.0916 50.2179 75.3093C50.2179 61.5048 61.4013 50.3253 75.1836 50.3253C88.9699 50.3253 100.168 61.5048 100.168 75.3093C100.168 89.0916 88.9699 100.257 75.1836 100.257ZM75.1836 36.8208C53.9384 36.8208 36.7319 54.0641 36.7319 75.3093C36.7319 96.5363 53.9384 113.761 75.1836 113.761C96.4288 113.761 113.654 96.5363 113.654 75.3093C113.654 54.0641 96.4288 36.8208 75.1836 36.8208Z" fill="url(#paint2_linear_1108_2129)"/>
</g>
<defs>
<linearGradient id="paint0_linear_1108_2129" x1="1.63765" y1="148.658" x2="137.621" y2="12.6744" gradientUnits="userSpaceOnUse">
<stop stop-color="#FFD521"/>
<stop offset="0.05" stop-color="#FFD521"/>
<stop offset="0.501119" stop-color="#F50000"/>
<stop offset="0.95" stop-color="#B900B4"/>
<stop offset="0.950079" stop-color="#B900B4"/>
<stop offset="1" stop-color="#B900B4"/>
</linearGradient>
<linearGradient id="paint1_linear_1108_2129" x1="1.63791" y1="148.844" x2="137.733" y2="12.7489" gradientUnits="userSpaceOnUse">
<stop stop-color="#FFD521"/>
<stop offset="0.05" stop-color="#FFD521"/>
<stop offset="0.501119" stop-color="#F50000"/>
<stop offset="0.95" stop-color="#B900B4"/>
<stop offset="0.950079" stop-color="#B900B4"/>
<stop offset="1" stop-color="#B900B4"/>
</linearGradient>
<linearGradient id="paint2_linear_1108_2129" x1="1.67313" y1="148.848" x2="137.736" y2="12.7854" gradientUnits="userSpaceOnUse">
<stop stop-color="#FFD521"/>
<stop offset="0.05" stop-color="#FFD521"/>
<stop offset="0.501119" stop-color="#F50000"/>
<stop offset="0.95" stop-color="#B900B4"/>
<stop offset="0.950079" stop-color="#B900B4"/>
<stop offset="1" stop-color="#B900B4"/>
</linearGradient>
<clipPath id="clip0_1108_2129">
<rect width="150" height="150" fill="white" transform="translate(0.286621 0.393829)"/>
</clipPath>
</defs>
</svg>
