<svg width="36" height="36" viewBox="0 0 36 36" fill="none" xmlns="http://www.w3.org/2000/svg">
<g filter="url(#filter0_d_677_2008)">
<rect x="4" width="28" height="28" rx="14" fill="white"/>
<path d="M17.1394 8V14.9397H18.8606V8H17.1394ZM13.7571 9.75708C12.6713 10.8429 12 12.3431 12 14C12 17.3137 14.6863 20 18 20C21.3137 20 24 17.3137 24 14C24 12.3431 23.3287 10.8429 22.2429 9.75708L21.0344 10.9656C21.811 11.7422 22.2913 12.8151 22.2913 14C22.2913 16.3698 20.3698 18.2913 18 18.2913C15.6302 18.2913 13.7087 16.3698 13.7087 14C13.7087 12.8151 14.189 11.7422 14.9656 10.9656L13.7571 9.75708Z" fill="#475069"/>
</g>
<defs>
<filter id="filter0_d_677_2008" x="0" y="0" width="36" height="36" filterUnits="userSpaceOnUse" color-interpolation-filters="sRGB">
<feFlood flood-opacity="0" result="BackgroundImageFix"/>
<feColorMatrix in="SourceAlpha" type="matrix" values="0 0 0 0 0 0 0 0 0 0 0 0 0 0 0 0 0 0 127 0" result="hardAlpha"/>
<feOffset dy="4"/>
<feGaussianBlur stdDeviation="2"/>
<feComposite in2="hardAlpha" operator="out"/>
<feColorMatrix type="matrix" values="0 0 0 0 0 0 0 0 0 0 0 0 0 0 0 0 0 0 0.25 0"/>
<feBlend mode="normal" in2="BackgroundImageFix" result="effect1_dropShadow_677_2008"/>
<feBlend mode="normal" in="SourceGraphic" in2="effect1_dropShadow_677_2008" result="shape"/>
</filter>
</defs>
</svg>
