<svg width="21" height="17" viewBox="0 0 21 17" fill="none" xmlns="http://www.w3.org/2000/svg">
<g clip-path="url(#clip0_482_398)">
<path d="M11.5562 2.19062L10.8188 0.696872C10.6969 0.437497 10.3156 0.428122 10.1812 0.696872L9.44375 2.19062L7.80937 2.425C7.51875 2.46875 7.39375 2.82812 7.60938 3.04375L8.79688 4.2L8.51562 5.82812C8.47188 6.11875 8.77187 6.34375 9.04062 6.20937L10.5063 5.43437L11.9625 6.19687C12.2312 6.33125 12.5344 6.10625 12.4875 5.81562L12.2063 4.1875L13.3938 3.04375C13.6062 2.83125 13.4844 2.47187 13.1938 2.425L11.5594 2.19062H11.5562ZM8.5 8.5C7.94688 8.5 7.5 8.94687 7.5 9.5V15.5C7.5 16.0531 7.94688 16.5 8.5 16.5H12.5C13.0531 16.5 13.5 16.0531 13.5 15.5V9.5C13.5 8.94687 13.0531 8.5 12.5 8.5H8.5ZM1.5 10.5C0.946875 10.5 0.5 10.9469 0.5 11.5V15.5C0.5 16.0531 0.946875 16.5 1.5 16.5H5.5C6.05312 16.5 6.5 16.0531 6.5 15.5V11.5C6.5 10.9469 6.05312 10.5 5.5 10.5H1.5ZM14.5 13.5V15.5C14.5 16.0531 14.9469 16.5 15.5 16.5H19.5C20.0531 16.5 20.5 16.0531 20.5 15.5V13.5C20.5 12.9469 20.0531 12.5 19.5 12.5H15.5C14.9469 12.5 14.5 12.9469 14.5 13.5Z" fill="white"/>
</g>
<defs>
<clipPath id="clip0_482_398">
<rect width="20" height="16" fill="white" transform="translate(0.5 0.5)"/>
</clipPath>
</defs>
</svg>
