<svg width="71" height="44" viewBox="0 0 71 44" fill="none" xmlns="http://www.w3.org/2000/svg">
<mask id="path-1-outside-1_1208_2181" maskUnits="userSpaceOnUse" x="0.600098" y="0" width="70" height="44" fill="black">
<rect fill="white" x="0.600098" width="70" height="44"/>
<path d="M49.0601 1C60.2935 1.00009 69.3999 10.1924 69.3999 21.5312C69.3997 32.8699 60.2933 42.0614 49.0601 42.0615C43.8503 42.0615 39.0981 40.0844 35.4995 36.833C31.901 40.0842 27.1495 42.0615 21.9399 42.0615C10.7066 42.0614 1.60024 32.87 1.6001 21.5312C1.6001 10.1924 10.7065 1.00008 21.9399 1C27.1491 1 31.9001 2.97778 35.4985 6.22852C39.0972 2.97686 43.85 1 49.0601 1Z"/>
</mask>
<path d="M49.0601 1L49.0601 0H49.0601V1ZM69.3999 21.5312L70.3999 21.5313V21.5312H69.3999ZM49.0601 42.0615L49.0601 43.0615L49.0601 43.0615L49.0601 42.0615ZM35.4995 36.833L36.1699 36.091L35.4995 35.4853L34.8291 36.091L35.4995 36.833ZM21.9399 42.0615L21.9399 43.0615H21.9399V42.0615ZM1.6001 21.5312L0.600098 21.5313L0.600098 21.5313L1.6001 21.5312ZM21.9399 1L21.9399 0L21.9399 0L21.9399 1ZM35.4985 6.22852L34.8282 6.97057L35.4986 7.5762L36.169 6.97049L35.4985 6.22852ZM49.0601 1L49.0601 2C59.7324 2.00008 68.3999 10.7358 68.3999 21.5312H69.3999H70.3999C70.3999 9.64892 60.8546 9.28594e-05 49.0601 0L49.0601 1ZM69.3999 21.5312L68.3999 21.5312C68.3997 32.3265 59.7322 41.0614 49.0601 41.0615L49.0601 42.0615L49.0601 43.0615C60.8544 43.0614 70.3996 33.4134 70.3999 21.5313L69.3999 21.5312ZM49.0601 42.0615V41.0615C44.1086 41.0615 39.5927 39.1836 36.1699 36.091L35.4995 36.833L34.8291 37.575C38.6035 40.9852 43.592 43.0615 49.0601 43.0615V42.0615ZM35.4995 36.833L34.8291 36.091C31.4063 39.1834 26.8911 41.0615 21.9399 41.0615V42.0615V43.0615C27.4079 43.0615 32.3956 40.9849 36.1699 37.575L35.4995 36.833ZM21.9399 42.0615L21.9399 41.0615C11.2677 41.0614 2.60023 32.3265 2.6001 21.5312L1.6001 21.5312L0.600098 21.5313C0.600245 33.4135 10.1456 43.0614 21.9399 43.0615L21.9399 42.0615ZM1.6001 21.5312H2.6001C2.6001 10.7358 11.2676 2.00008 21.9399 2L21.9399 1L21.9399 0C10.1454 8.84945e-05 0.600098 9.64892 0.600098 21.5312H1.6001ZM21.9399 1V2C26.8907 2 31.4054 3.87849 34.8282 6.97057L35.4985 6.22852L36.1689 5.48646C32.3948 2.07707 27.4076 0 21.9399 0V1ZM35.4985 6.22852L36.169 6.97049C39.5918 3.87773 44.1083 2 49.0601 2V1V0C43.5918 0 38.6026 2.076 34.8281 5.48654L35.4985 6.22852Z" fill="#EA4335" mask="url(#path-1-outside-1_1208_2181)"/>
</svg>
