<svg width="24" height="24" viewBox="0 0 24 24" fill="none" xmlns="http://www.w3.org/2000/svg">
<path d="M6.2033 18.4632L7.9643 17.9552L18.5673 7.22517C18.6509 7.13947 18.6975 7.0243 18.6969 6.90456C18.6964 6.78481 18.6487 6.67009 18.5643 6.58517L17.9293 5.94317C17.8883 5.90101 17.8392 5.86744 17.7851 5.84443C17.731 5.82142 17.6728 5.80942 17.6139 5.80914C17.5551 5.80886 17.4968 5.8203 17.4424 5.8428C17.3881 5.8653 17.3387 5.8984 17.2973 5.94017L6.7223 16.6422L6.2033 18.4632ZM19.1863 4.67117L19.8213 5.31417C20.6973 6.20117 20.7053 7.63217 19.8373 8.51017L8.9113 19.5682L5.1473 20.6522C5.03351 20.6842 4.91453 20.6934 4.79716 20.6794C4.6798 20.6654 4.56633 20.6284 4.46326 20.5706C4.36018 20.5127 4.26951 20.4351 4.19643 20.3422C4.12334 20.2493 4.06927 20.143 4.0373 20.0292C3.98826 19.8642 3.98756 19.6886 4.0353 19.5232L5.1303 15.6832L16.0273 4.65417C16.2345 4.44553 16.4812 4.28023 16.7529 4.16792C17.0247 4.05561 17.3161 3.99854 17.6102 4.00003C17.9042 4.00152 18.195 4.06154 18.4656 4.1766C18.7362 4.29165 18.9812 4.46044 19.1863 4.67117Z" fill="#4338CA"/>
</svg>
